<svg width="38" height="39" viewBox="0 0 38 39" fill="none" xmlns="http://www.w3.org/2000/svg">
<path fill-rule="evenodd" clip-rule="evenodd" d="M38 19.5C38 21.9951 37.5086 24.4658 36.5537 26.771C35.5989 29.0762 34.1993 31.1707 32.435 32.935C30.6707 34.6993 28.5762 36.0989 26.271 37.0537C23.9658 38.0086 21.4951 38.5 19 38.5C16.5049 38.5 14.0342 38.0086 11.729 37.0537C9.42383 36.0989 7.32928 34.6993 5.56497 32.935C3.80066 31.1707 2.40113 29.0762 1.44629 26.771C0.491449 24.4658 -3.71801e-08 21.9951 0 19.5C7.50886e-08 14.4609 2.00178 9.62816 5.56497 6.06497C9.12816 2.50178 13.9609 0.5 19 0.5C24.0391 0.5 28.8718 2.50178 32.435 6.06497C35.9982 9.62816 38 14.4609 38 19.5ZM4.22222 19.5C4.22222 23.4193 5.77916 27.1781 8.55053 29.9495C11.3219 32.7208 15.0807 34.2778 19 34.2778V19.5H33.7778C33.7778 15.5807 32.2208 11.8219 29.4495 9.05053C26.6781 6.27916 22.9193 4.72222 19 4.72222V19.5H4.22222Z" fill="black"/>
</svg>
