<svg width="47" height="39" viewBox="0 0 47 39" fill="none" xmlns="http://www.w3.org/2000/svg">
<path d="M46.7626 9.51787C46.1204 3.25557 41.956 1.93811 38.2896 1.33679C36.4487 1.02543 33.1716 0.752983 31.0582 0.675142C29.2173 0.558381 24.8932 0.5 23.5952 0.5C22.3167 0.5 17.9712 0.558381 16.1322 0.675142C14.0383 0.752983 10.7417 1.02543 8.9008 1.33679C5.23644 1.95757 1.06611 3.27114 0.427813 9.51787C0.272131 11.2245 0.23321 13.4547 0.252671 15.8386C0.311051 19.7909 0.641875 22.4667 0.836478 24.3291C0.972699 25.6076 1.49423 29.4276 2.1734 31.4048C3.1036 34.1195 3.95595 34.9135 4.94453 35.7289C6.76796 37.202 9.75316 37.6671 10.3739 37.7839C13.7464 38.3871 20.5711 38.5 23.5758 38.5C26.5804 38.5 33.4032 38.4027 36.7776 37.7839C37.4178 37.6671 40.403 37.2195 42.207 35.7289C43.1956 34.9135 44.0479 34.1195 44.9781 31.4048C45.6592 29.4276 46.2002 25.6076 46.3364 24.3291C46.5311 22.4667 46.8794 19.7909 46.9183 15.8386C46.9962 13.4547 46.9378 11.2245 46.7626 9.51787ZM44.4741 20.0264C44.1044 25.0277 43.6607 28.0129 43.0204 30.1846C42.4561 32.084 41.7808 33.343 40.7533 34.2557C39.0661 35.7872 36.7387 36.1161 35.3823 36.3107C32.436 36.7583 27.4912 36.8945 23.5952 36.8945C19.6993 36.8945 14.7544 36.7388 11.8082 36.3107C10.4518 36.1161 8.12434 35.7872 6.43713 34.2557C5.42909 33.343 4.73242 32.0645 4.18948 30.1827C3.54923 28.0323 3.10359 25.0257 2.7358 20.0245C2.52173 17.0217 2.56065 12.1353 2.89148 9.51593C3.39355 5.60247 5.33374 3.64283 9.48266 2.90723C11.4209 2.55695 14.0364 2.30396 16.5 2.1872C18.4772 2.05098 21.7543 1.9926 23.5758 2.01206C25.3972 1.9926 28.6743 2.07044 30.6515 2.1872C33.1327 2.30396 35.7306 2.55695 37.6689 2.90723C41.8372 3.64283 43.7774 5.62193 44.262 9.51787C44.6492 12.1353 44.7057 17.0217 44.4741 20.0264ZM34.3528 3.69926C33.2864 8.49037 32.8602 10.6816 31.9865 14.1494C31.1536 17.4868 30.4939 20.5674 29.3885 22.06C28.2462 23.5721 26.7322 23.9029 25.7047 24.0177C25.1618 24.0761 24.7745 24.0955 23.6302 24.115C22.9315 24.1282 22.2327 24.0957 21.5383 24.0177C20.5108 23.9009 18.9793 23.5721 17.8564 22.06C16.7316 20.5674 16.0914 17.4868 15.2585 14.1514C14.3438 10.7011 13.9391 8.48843 12.8532 3.70121C12.8532 3.70121 11.7868 3.74013 11.3022 3.77905C10.6619 3.81797 10.1579 3.87635 9.61499 3.95419C10.2825 14.4082 10.9616 25.5142 11.8062 35.3436C13.3494 35.5376 14.9021 35.6474 16.4572 35.6724C17.0994 33.2088 17.9128 29.7954 18.8061 28.3418C19.5417 27.1586 20.6859 27.0243 21.3262 26.9465C22.3342 26.8102 23.1866 26.7908 23.5933 26.7908C23.9825 26.7713 24.8329 26.7908 25.8604 26.9465C26.5026 27.0438 27.6449 27.1605 28.3805 28.3418C29.2951 29.7954 30.0872 33.2068 30.7274 35.6705C30.7274 35.6705 31.4241 35.651 32.9945 35.5732C33.7924 35.5382 34.5903 35.4603 35.3803 35.3397C36.2716 24.8506 36.908 14.4627 37.5716 3.95419C37.0267 3.87635 36.5246 3.81797 35.8844 3.77905C35.4368 3.74013 34.3528 3.69926 34.3528 3.69926Z" fill="black"/>
</svg>
