<svg width="39" height="39" viewBox="0 0 39 39" fill="none" xmlns="http://www.w3.org/2000/svg">
<g clip-path="url(#clip0_582_150)">
<path d="M19.3998 0.5C24.9414 0.5 30.6889 0.973417 36.5267 1.98042C36.6138 4.32058 36.7135 7.93692 36.5473 11.0054C36.1752 17.8486 34.6694 23.1591 31.8068 27.7207C28.9504 32.268 24.5314 36.1772 19.3998 38.5C14.2666 36.1772 9.84752 32.268 6.99277 27.7207C4.1301 23.1607 2.62435 17.8486 2.25227 11.0054C2.08602 7.93692 2.18577 4.32058 2.27285 1.98042C7.9293 1.00053 13.6591 0.505262 19.3998 0.5Z" fill="black"/>
<path d="M19.3523 21.1403L19.4933 21.9668C19.5143 22.0448 19.5127 22.1272 19.4885 22.2043C19.4125 22.4719 18.9138 24.7218 18.6367 26.3606C18.5053 27.1158 18.3928 27.8648 18.3279 28.506C18.2834 28.7659 18.308 29.0329 18.3992 29.2803C18.6715 30.1938 19.6785 32.5783 19.8717 33.0138C19.8929 33.0615 19.9067 33.1122 19.9128 33.1642L19.9857 33.7263C19.6627 33.2386 17.9083 30.0133 17.2196 28.2258C17.1388 28.0152 17.1246 27.9123 17.2133 27.5243C17.6914 25.4723 18.9882 21.9843 19.3523 21.1403ZM16.7953 16.1813C16.8428 16.327 17.2544 17.733 17.2861 18.0687C17.3175 18.2081 17.3019 18.3539 17.2418 18.4835C16.8808 19.443 15.7914 21.8291 15.3718 22.6255C15.2768 22.7997 15.1898 22.9153 15.014 23.0942C14.6134 23.5027 13.8439 24.2753 13.3689 24.7076C13.2241 24.8335 13.1333 25.0105 13.1156 25.2016C13.0542 25.5899 13.0109 25.9809 12.9858 26.3733C12.9731 26.6266 13.0127 26.7453 13.1552 26.9971C13.9928 28.4933 16.7905 31.9371 17.5885 32.6591C17.6573 32.7215 17.7315 32.7776 17.8102 32.8269C17.9273 32.9061 18.3089 33.1531 18.3089 33.1531C18.3243 33.164 18.3373 33.178 18.3469 33.1943L18.4863 33.4381C18.0748 33.2354 17.6658 33.028 17.2592 32.8158C17.1889 32.7777 17.1226 32.7326 17.0613 32.6813C16.1271 31.9054 13.2676 28.5551 12.4268 27.1554C12.2163 26.8071 12.1957 26.6947 12.2226 26.3638C12.2764 25.7478 12.3572 24.9736 12.4284 24.6348C12.4575 24.4451 12.5431 24.2685 12.6738 24.1281C13.8677 22.7601 16.1667 19.7375 16.838 18.4439C16.8985 18.3428 16.9272 18.2259 16.9203 18.1083C16.9235 17.7077 16.7968 16.9287 16.762 16.7308C16.7571 16.6999 16.756 16.6685 16.7588 16.6373L16.7953 16.1813ZM24.6011 15.4308C24.7309 15.4894 24.9399 15.5575 25.0349 15.6683C26.5185 17.2168 27.7044 18.8239 27.9419 19.2467C27.9878 19.3255 28.0175 19.4127 28.029 19.5032C28.2966 21.7626 28.067 24.155 27.5223 26.2371C27.5055 26.3226 27.4716 26.4038 27.4226 26.4759C27.3737 26.548 27.3106 26.6095 27.2373 26.6567C26.034 27.5623 23.1698 29.9373 22.2087 30.8208C22.1038 30.9183 22.0127 31.0297 21.9379 31.1518C21.6957 31.5476 21.3964 32.1033 21.2064 32.458C21.0101 32.0305 20.5842 30.9887 20.4385 30.5691C20.3866 30.4432 20.3844 30.3023 20.4322 30.1748C20.6697 29.304 21.797 26.7659 22.0155 26.3068C22.0139 26.3653 22.0266 26.5189 22.0044 26.5759C21.9047 26.8752 21.2998 28.8749 21.1763 29.7426C21.1502 29.886 21.1502 30.033 21.1763 30.1764C21.2302 30.5802 21.4724 31.3228 21.4724 31.3228C21.4993 31.2578 21.7717 30.7163 21.9617 30.5675C23.0843 29.4623 25.4403 27.4436 26.7908 26.3495C26.9428 26.2276 26.9983 26.1437 27.0331 25.9109C27.1993 24.763 27.2484 22.7015 27.1471 21.2005C27.129 20.9174 27.0361 20.6443 26.8779 20.4088C26.5106 19.8673 26.0736 19.3559 25.4102 18.6988C25.3154 18.604 25.2518 18.4825 25.2281 18.3505C25.0338 17.3743 24.8253 16.401 24.6027 15.4308H24.6011ZM12.0611 17.8201C12.1532 17.79 12.2519 17.7862 12.3461 17.809C12.7688 17.9103 13.6634 18.1304 14.3411 18.303C14.4361 18.3283 14.5533 18.417 14.6039 18.5009L14.7512 18.7463C14.7765 18.7884 14.7907 18.8362 14.7923 18.8852C14.794 18.9343 14.7831 18.9829 14.7607 19.0266C14.6036 19.3271 14.4421 19.6254 14.2762 19.9212L14.1368 20.1713C13.8788 20.6305 13.6207 21.0738 13.475 21.3066C13.38 21.4602 13.3262 21.5283 13.1552 21.5884C12.4902 21.8228 11.6621 22.103 11.1713 22.2613C11.0715 22.2946 11.0367 22.3563 11.0573 22.4672C11.0921 22.6698 11.2045 23.3602 11.2473 23.5597C11.2631 23.6341 11.3233 23.6943 11.4341 23.6721C11.7238 23.6183 12.4965 23.4283 12.4965 23.4283L12.1323 23.7639C12.1079 23.7868 12.0787 23.8041 12.0468 23.8146C11.7541 23.9077 11.4584 23.9911 11.1602 24.0648C11.0367 24.0917 10.9575 24.0426 10.9243 23.9017C10.9243 23.9017 10.7058 22.9675 10.6266 22.6493C10.6142 22.6029 10.6005 22.557 10.5854 22.5115C10.4998 22.2635 10.4058 22.0185 10.3036 21.7768C10.294 21.7549 10.2892 21.7311 10.2893 21.7072C10.2925 21.4903 10.3321 21.0073 10.3321 21.0073C10.3321 21.0073 10.8055 21.4507 11.0351 21.6122C11.0858 21.6486 11.1174 21.6565 11.1808 21.6391C11.4943 21.5599 12.2178 21.3193 12.6153 21.1704C12.7056 21.1363 12.7853 21.0789 12.8464 21.0042C13.2581 20.5086 13.7727 19.7375 14.0703 19.1533C14.1106 19.0733 14.1186 18.9808 14.0925 18.8952L14.0292 18.6846C14.0167 18.6505 13.9975 18.6192 13.9727 18.5925C13.948 18.5659 13.9182 18.5444 13.8851 18.5294C13.2561 18.289 12.6227 18.0605 11.9851 17.8438L12.0627 17.8201H12.0611ZM25.9026 11.8066C26.0566 11.7496 26.2265 11.7536 26.3776 11.8177C27.5493 12.3101 29.5221 13.4707 30.6193 14.2877C30.7254 14.3668 30.7666 14.4207 30.7935 14.5473C31.0516 15.719 31.1498 17.5319 30.9883 19.0567C30.9783 19.1594 30.9476 19.2591 30.898 19.3496C30.2013 20.7714 29.4208 22.1093 28.5974 23.1417C28.6101 23.015 28.6687 22.4118 28.6718 22.0603C28.672 22.0418 28.6763 22.0237 28.6845 22.0072C28.6928 21.9908 28.7047 21.9764 28.7193 21.9653C28.8831 21.8384 29.0441 21.708 29.2023 21.5742C29.249 21.5356 29.2891 21.4896 29.321 21.438C29.6567 20.8949 30.2552 19.7597 30.4974 19.0773C30.5567 18.9109 30.5799 18.7339 30.5655 18.5579C30.4879 17.6048 30.3391 16.2874 30.1158 15.4261C30.0976 15.3535 30.0642 15.2857 30.0178 15.227C29.9714 15.1683 29.9131 15.1201 29.8467 15.0857C29.3804 14.8612 28.905 14.6563 28.4217 14.4713C28.3028 14.4242 28.1922 14.3584 28.0939 14.2766C27.4445 13.7307 26.782 13.2007 26.1068 12.6869C26.028 12.628 25.9374 12.5869 25.8412 12.5664C25.745 12.5459 25.6455 12.5465 25.5495 12.5682C25.1509 12.6592 24.7539 12.7574 24.3588 12.8627C24.2826 12.887 24.2017 12.8924 24.1229 12.8785C23.9646 12.8611 23.6479 12.8358 23.5181 12.8263C24.299 12.4547 25.0945 12.1145 25.9026 11.8066ZM13.5003 19.5016C13.2286 19.955 12.9276 20.3903 12.5994 20.8047C12.5647 20.8473 12.5194 20.88 12.468 20.8997C12.0982 21.0346 11.725 21.1597 11.3486 21.2749L13.5003 19.5016ZM9.65759 18.8714L9.48659 20.0558L8.90234 19.3718C9.01001 19.1406 9.32034 18.9237 9.65759 18.8714ZM8.57143 16.1813L8.36084 16.3143C8.30701 16.3476 8.29276 16.3618 8.27059 16.4093C8.22861 16.4958 8.18373 16.5808 8.13601 16.6643C8.11523 16.6942 8.09016 16.7208 8.06159 16.7434C7.81321 16.9347 7.56141 17.1216 7.30634 17.3039C7.29209 17.3134 7.27468 17.3103 7.26201 17.2976C7.20766 17.2397 7.15589 17.1795 7.10684 17.1171C7.09084 17.0944 7.08252 17.0672 7.08309 17.0395C7.08396 16.9692 7.08713 16.899 7.09259 16.8289C7.09893 16.7482 7.12109 16.7102 7.21926 16.6073C7.33009 16.4933 7.44884 16.3745 7.57551 16.251C7.88268 15.9913 8.66168 15.3596 10.0518 14.3668C10.0786 14.348 10.1021 14.325 10.1215 14.2988C10.2672 14.1024 10.682 13.5641 10.7833 13.4358C10.7979 13.4182 10.8143 13.4023 10.8324 13.3883C10.9633 13.2825 11.1008 13.1852 11.2441 13.097C11.6304 12.8532 12.3809 12.4067 12.8005 12.1628L12.6422 12.3592L12.6137 12.3845C12.3152 12.61 12.0185 12.838 11.7238 13.0685C11.7036 13.0828 11.6865 13.1012 11.6736 13.1224C11.6608 13.1437 11.6526 13.1674 11.6494 13.192C11.6023 13.4544 11.5648 13.7185 11.537 13.9837C11.5323 14.047 11.5053 14.0755 11.442 14.1024C11.1681 14.2133 10.8435 14.3304 10.5807 14.4349C10.5428 14.4477 10.5074 14.467 10.4762 14.4919C10.4493 14.5125 10.1009 14.8244 10.1009 14.8244C10.1009 14.8244 10.8593 14.6376 11.138 14.5743C11.1637 14.5663 11.1907 14.5637 11.2174 14.5667C11.2441 14.5697 11.2699 14.5782 11.2932 14.5917C11.3518 14.6186 11.4468 14.6566 11.4974 14.6756C11.5625 14.702 11.6348 14.7048 11.7017 14.6835C12.0152 14.6138 12.5408 14.4888 12.8227 14.4143C12.9488 14.3846 13.0674 14.3291 13.171 14.2513C13.3056 14.1578 13.646 13.9029 13.646 13.9029L13.6349 13.9726C13.6318 13.9917 13.623 14.0093 13.6096 14.0233C13.529 14.1197 13.4456 14.2137 13.3594 14.3051C13.2519 14.4249 13.1165 14.5163 12.9652 14.5711C12.1688 14.9036 10.8071 15.4198 9.78426 15.7744C9.72809 15.7908 9.67763 15.8226 9.63859 15.8663L9.51193 16.0008C9.51193 16.0008 10.3463 16.0626 10.6013 16.0911C10.6774 16.0979 10.7492 16.1297 10.8055 16.1813C11.0145 16.3618 11.7064 17.0759 11.9138 17.3213C11.9138 17.3213 9.94576 17.6507 9.03376 17.8755C8.98688 17.8856 8.94384 17.9089 8.90964 17.9425C8.87545 17.9761 8.8515 18.0188 8.84059 18.0655C8.76459 18.3315 8.58726 19.1849 8.58726 19.1849C8.58726 19.1849 8.52393 19.1643 8.43526 19.1137C8.37522 19.0781 8.32168 19.0326 8.27693 18.9791C8.01034 18.6893 7.76282 18.3826 7.53593 18.0608C7.48684 17.9863 7.46626 17.8913 7.52801 17.8153C7.71326 17.5873 8.08376 17.1725 8.28801 16.9588C8.31979 16.9219 8.34642 16.8809 8.36718 16.8368C8.44634 16.6738 8.53184 16.3333 8.57143 16.1813ZM21.2713 11.7227C21.3299 11.7124 21.3903 11.7207 21.4439 11.7464L21.8493 11.9396C21.8691 11.9492 21.8865 11.9632 21.9002 11.9805C21.9139 11.9977 21.9235 12.0178 21.9284 12.0393C21.9838 12.2721 22.0519 12.5793 22.0963 12.8421C22.1147 12.9511 22.0945 13.063 22.0393 13.1588C21.815 13.5321 21.5795 13.8985 21.3331 14.2576C21.2937 14.322 21.2812 14.3993 21.2983 14.4729C21.3869 14.9574 21.7511 16.6484 21.7511 16.6484L21.5215 16.4394C21.4775 16.4002 21.4447 16.3499 21.4265 16.2938C21.2118 15.6429 21.0086 14.9884 20.8169 14.3304C20.8056 14.2912 20.804 14.2498 20.8123 14.2098C20.8206 14.1698 20.8385 14.1324 20.8644 14.1008C21.1035 13.8095 21.4534 13.344 21.6561 13.0495C21.7131 12.9656 21.7321 12.8753 21.6988 12.8057C21.6355 12.6787 21.5684 12.5535 21.4978 12.4304C21.477 12.3935 21.4431 12.3658 21.4028 12.3528L21.1273 12.2658C21.0793 12.2501 21.0276 12.2507 20.98 12.2673C20.3799 12.4858 19.5724 12.7993 19.08 13.0052C19.0207 13.0332 18.9536 13.0399 18.89 13.0242C18.7475 13.0036 18.3295 12.9292 18.1253 12.8896C18.1169 12.8879 18.1091 12.8843 18.1024 12.879C18.0958 12.8738 18.0904 12.867 18.0869 12.8593C18.0833 12.8516 18.0816 12.8431 18.082 12.8346C18.0823 12.8261 18.0847 12.8178 18.0888 12.8104L18.3311 12.3893C18.3473 12.3612 18.3692 12.3369 18.3954 12.3178C18.4216 12.2987 18.4514 12.2853 18.4831 12.2784C19.4081 12.0716 20.3377 11.8863 21.2713 11.7227ZM12.6501 13.6512C12.6683 13.6494 12.6866 13.6536 12.7022 13.663C12.7179 13.6724 12.7302 13.6865 12.7372 13.7034C12.759 13.7595 12.7692 13.8195 12.767 13.8797C12.7648 13.9399 12.7504 13.999 12.7245 14.0533C12.7124 14.0772 12.6955 14.0983 12.6747 14.1152C12.654 14.1321 12.63 14.1444 12.6042 14.1515L12.2147 14.237C12.2094 14.2379 12.204 14.2377 12.1988 14.2363C12.1936 14.2349 12.1888 14.2323 12.1847 14.2289C12.1806 14.2254 12.1774 14.221 12.1752 14.2162C12.1729 14.2113 12.1718 14.206 12.1719 14.2006L12.2083 13.7414C12.2097 13.7268 12.2162 13.7131 12.2266 13.7027C12.237 13.6923 12.2507 13.6858 12.2653 13.6844L12.6501 13.6528V13.6512ZM17.0739 10.7157C17.0841 10.7158 17.0941 10.7185 17.1028 10.7236C17.1116 10.7287 17.1189 10.736 17.124 10.7448C17.1292 10.7536 17.1319 10.7635 17.132 10.7737C17.1321 10.7839 17.1295 10.7939 17.1246 10.8028L16.1762 12.4383C16.1237 12.5344 16.0355 12.606 15.9308 12.6378L14.1543 13.1952C13.9603 13.2552 13.7599 13.2924 13.5573 13.306C13.1631 13.3377 11.993 13.3741 11.993 13.3741L12.0183 13.3187C12.0305 13.2924 12.0519 13.2715 12.0785 13.2601L12.6327 13.0242C12.6741 13.0071 12.7106 12.9799 12.7388 12.945L13.5938 11.8905C13.6404 11.8324 13.698 11.784 13.7632 11.748C14.3284 11.4488 15.3338 11.0023 16.0384 10.7663C16.1112 10.7431 16.1869 10.7303 16.2633 10.7283L17.0739 10.7157ZM16.1239 8.81884C18.5037 8.62578 20.8947 8.61678 23.2758 8.79192C23.4192 8.80288 23.5599 8.83711 23.6923 8.89325C24.5235 9.24159 25.9976 10.0079 27.6363 10.9453C27.7087 10.9868 27.7766 11.0356 27.839 11.0909C28.2728 11.4741 29.3733 12.6014 29.3733 12.6014L29.0297 12.5333C28.9821 12.524 28.9368 12.5051 28.8967 12.4779C28.0734 11.9287 27.2197 11.4265 26.3396 10.9738C26.239 10.923 26.1302 10.8909 26.0182 10.8788C25.5738 10.8337 25.1281 10.8015 24.6818 10.7822C24.514 10.7796 24.3493 10.7361 24.2021 10.6555C23.6912 10.4038 23.1709 10.1714 22.6425 9.95884C22.5064 9.89969 22.3585 9.87261 22.2103 9.87967C21.1758 9.89807 20.1417 9.93502 19.1085 9.9905C19.081 9.99186 19.0534 9.99027 19.0262 9.98575L18.6398 9.92559C19.7371 9.73559 22.4509 9.49334 23.5751 9.43475L23.1175 9.28275C23.0291 9.25348 22.9367 9.23748 22.8436 9.23525C21.3078 9.20042 19.1972 9.20675 17.4096 9.34134C17.2992 9.34921 17.1911 9.37599 17.0898 9.4205C16.5783 9.64534 15.3323 10.323 14.0814 11.0165L12.8591 11.7021L13.0443 11.4614C13.0631 11.4352 13.0874 11.4136 13.1156 11.3981C13.2771 11.2904 13.7648 10.9738 13.9611 10.8297C14.3379 10.5463 14.9317 10.0459 15.2863 9.73559C15.3656 9.66544 15.434 9.58377 15.489 9.49333C15.6046 9.30808 15.7297 9.107 15.8057 8.99459C15.8421 8.94358 15.8894 8.90134 15.9442 8.87093C15.9989 8.84053 16.0614 8.82273 16.1239 8.81884ZM7.77026 4.30634C8.25476 4.25567 8.52551 4.44409 8.52551 4.9365V5.20725C8.52551 5.70917 8.25476 5.91342 7.77026 5.9625C7.09984 6.0325 6.43007 6.1085 5.76101 6.1905V6.93467C5.62009 6.9505 5.48076 6.96634 5.33984 6.98534V4.58659C6.14894 4.48431 6.95913 4.39089 7.77026 4.30634ZM30.2583 4.22717C31.3272 4.33173 32.3944 4.45155 33.4598 4.58659V4.9745C32.9989 4.91613 32.5376 4.86072 32.076 4.80825V6.81909C31.9356 6.80305 31.7953 6.78722 31.6548 6.77159V4.76075C31.1897 4.70918 30.7242 4.66062 30.2583 4.61509V4.22717ZM12.5123 3.91525V4.3C11.6334 4.35419 10.7551 4.41859 9.87768 4.49317V5.08375C10.6581 5.01725 11.4393 4.95919 12.221 4.90959V5.29592C11.4393 5.34576 10.6582 5.40381 9.87768 5.47009V6.11925C10.7551 6.04435 11.6334 5.97996 12.5123 5.92609V6.31242C11.4959 6.37513 10.4804 6.45167 9.46601 6.542V4.14167C10.4804 4.05126 11.4959 3.97472 12.5123 3.91209V3.91525ZM26.1813 4.57234C26.1813 4.034 26.4473 3.92317 27.0489 3.96434C27.5762 4.00075 28.1018 4.04034 28.6291 4.08309C29.1516 4.12742 29.4952 4.27309 29.4952 4.8225V5.89284C29.4952 6.43117 29.1975 6.52934 28.6291 6.48184C28.1027 6.43862 27.5759 6.39904 27.0489 6.36309C26.4742 6.3235 26.1813 6.21267 26.1813 5.64267V4.57234ZM22.0947 3.73475C23.1112 3.76009 24.1293 3.79809 25.1458 3.85034V4.23667C24.2669 4.19147 23.3876 4.15664 22.5079 4.13217V4.72275C23.2901 4.74492 24.0723 4.775 24.8544 4.813V5.19934C24.0726 5.16155 23.2904 5.13199 22.5079 5.11067V5.75825C23.3876 5.78248 24.2669 5.81732 25.1458 5.86275V6.24909C24.1293 6.1968 23.1122 6.15827 22.0947 6.1335V3.73475ZM16.8 3.73317V5.4685C16.8 6.01792 16.5118 6.13825 15.9308 6.15567C15.4255 6.17111 14.9205 6.19011 14.4155 6.21267C13.8772 6.23642 13.5478 6.1335 13.5478 5.59042V3.85667L13.9595 3.8345V5.64267C13.9595 5.7535 14.0545 5.84217 14.1812 5.83742C14.8428 5.80616 15.5046 5.78083 16.1667 5.76142C16.2221 5.76142 16.2753 5.7394 16.3145 5.7002C16.3537 5.66101 16.3757 5.60785 16.3757 5.55242V3.74267L16.8 3.73159V3.73317ZM26.813 4.33484C26.7847 4.33184 26.756 4.33501 26.729 4.34411C26.702 4.35322 26.6773 4.36805 26.6565 4.3876C26.6358 4.40714 26.6195 4.43094 26.6088 4.45736C26.5981 4.48378 26.5932 4.51219 26.5945 4.54067V5.725C26.5945 5.83584 26.6895 5.94984 26.813 5.95934C27.497 6.00367 28.181 6.05434 28.865 6.11292C28.9202 6.11467 28.974 6.0948 29.0148 6.05754C29.0556 6.02028 29.0802 5.96858 29.0835 5.91342V4.72592C29.081 4.66691 29.0577 4.61069 29.0177 4.56723C28.9777 4.52376 28.9236 4.49584 28.865 4.48842C28.1815 4.43036 27.4975 4.38022 26.813 4.33484ZM18.624 3.70625C19.384 3.69992 20.1408 3.70309 20.8993 3.71259V4.09892C20.0886 4.08818 19.2779 4.08607 18.4673 4.09259C18.3564 4.09417 18.2472 4.18917 18.2472 4.29842V5.50175C18.2472 5.611 18.358 5.72025 18.4673 5.71867C19.1956 5.71234 19.9208 5.71392 20.6491 5.72184V5.07267C20.2269 5.06802 19.8047 5.06591 19.3824 5.06634V4.68C19.9429 4.68 20.5018 4.68475 21.0608 4.69267V6.1145C20.2744 6.10257 19.488 6.09888 18.7016 6.10342C18.1268 6.10817 17.8339 6.00842 17.8339 5.4495V4.4045C17.8339 3.882 18.0952 3.70942 18.624 3.70625ZM7.89693 4.68159C7.18473 4.75493 6.47325 4.83516 5.76259 4.92225V5.80575C6.47326 5.71874 7.18473 5.63851 7.89693 5.56509C8.00618 5.554 8.11543 5.45425 8.11543 5.34975V4.86367C8.11543 4.75284 8.00459 4.6705 7.89693 4.68159Z" fill="white"/>
</g>
<defs>
<clipPath id="clip0_582_150">
<rect width="38" height="38" fill="white" transform="translate(0.399902 0.5)"/>
</clipPath>
</defs>
</svg>
