<svg width="39" height="39" viewBox="0 0 39 39" fill="none" xmlns="http://www.w3.org/2000/svg">
<g clip-path="url(#clip0_582_140)">
<path d="M19.8003 0.5C16.0425 0.5 12.369 1.61433 9.24447 3.70208C6.11993 5.78982 3.68466 8.75722 2.24659 12.229C0.808525 15.7008 0.432262 19.5211 1.16538 23.2067C1.8985 26.8924 3.70807 30.2778 6.36527 32.935C9.02247 35.5922 12.4079 37.4018 16.0936 38.1349C19.7792 38.868 23.5995 38.4918 27.0713 37.0537C30.5431 35.6156 33.5105 33.1804 35.5982 30.0558C37.686 26.9313 38.8003 23.2578 38.8003 19.5C38.8003 14.4609 36.7985 9.62816 33.2353 6.06497C29.6721 2.50178 24.8394 0.5 19.8003 0.5ZM19.148 2.68025C21.415 2.58905 23.6771 2.95637 25.7988 3.76022C27.9205 4.56406 29.8581 5.78789 31.4956 7.35838C33.133 8.92888 34.4367 10.8137 35.3284 12.9C36.2201 14.9863 36.6815 17.2311 36.685 19.5C36.6883 21.7183 36.2538 23.9154 35.4065 25.9654C34.5591 28.0155 33.3156 29.8782 31.747 31.4467C30.1784 33.0153 28.3158 34.2588 26.2657 35.1062C24.2157 35.9535 22.0186 36.388 19.8003 36.3847C15.3923 36.3743 11.1636 34.638 8.02031 31.5477C4.87698 28.4573 3.06899 24.2588 2.98369 19.8516C2.89839 15.4444 4.54257 11.1791 7.56397 7.96946C10.5854 4.75981 14.7437 2.86115 19.148 2.68025ZM19.8003 3.50833C19.7388 3.50974 19.6794 3.53057 19.6305 3.56782C19.5815 3.60508 19.5457 3.65686 19.528 3.71575L18.1299 7.71525C18.1235 7.76625 18.1235 7.81784 18.1299 7.86883C18.1297 7.94705 18.1488 8.02411 18.1855 8.09316C18.2223 8.16221 18.2755 8.22113 18.3405 8.26467C18.5249 8.39249 18.6774 8.56093 18.7865 8.75701C18.8955 8.95308 18.9581 9.17157 18.9694 9.39565C18.9808 9.61972 18.9405 9.84341 18.8518 10.0495C18.763 10.2555 18.6282 10.4385 18.4576 10.5843C18.0487 10.9343 17.7208 11.3691 17.4966 11.8585C17.2724 12.3479 17.1573 12.8801 17.1593 13.4184V14.8482L10.0866 10.7885L9.22047 12.2974L17.1166 16.8527V17.9483L16.1634 18.4977L8.28155 13.9378L7.40913 15.4483L14.4201 19.5L13.182 20.2125C12.7167 20.484 12.3162 20.8535 12.008 21.2953C11.6999 21.7372 11.4916 22.2408 11.3976 22.7712C11.3558 22.9924 11.2639 23.2011 11.1289 23.3812C10.9938 23.5614 10.8193 23.7082 10.6187 23.8103C10.4181 23.9124 10.1967 23.9672 9.97161 23.9704C9.74651 23.9737 9.52367 23.9252 9.32022 23.8288C9.25278 23.7927 9.17745 23.7737 9.10093 23.7737C9.0244 23.7737 8.94907 23.7927 8.88163 23.8288C8.83498 23.8553 8.79277 23.889 8.75655 23.9286L5.99838 27.1538C5.95983 27.2006 5.93648 27.2581 5.93146 27.3185C5.92644 27.3789 5.93998 27.4394 5.97028 27.4919C6.00058 27.5444 6.04619 27.5864 6.10101 27.6123C6.15583 27.6382 6.21725 27.6467 6.27705 27.6368L10.446 26.8562C10.4957 26.8442 10.5437 26.8255 10.5885 26.8008C10.6564 26.7625 10.7139 26.7081 10.7559 26.6424C10.7979 26.5767 10.823 26.5017 10.8291 26.4239C10.8511 26.2024 10.9232 25.9888 11.04 25.7994C11.1568 25.6099 11.3152 25.4495 11.5031 25.3303C11.6911 25.2111 11.9038 25.1363 12.125 25.1115C12.3462 25.0868 12.5701 25.1127 12.7798 25.1873C13.2859 25.3652 13.8246 25.4312 14.3587 25.3809C14.8928 25.3306 15.4096 25.1652 15.8736 24.896L17.1086 24.1819V32.2633H18.8471V23.1496L19.794 22.6049L20.7408 23.1496V32.2633H22.4825V24.1518L23.7175 24.8643C24.1815 25.1335 24.6983 25.2989 25.2324 25.3492C25.7665 25.3995 26.3052 25.3335 26.8113 25.1557C27.0213 25.0804 27.2457 25.0541 27.4674 25.0787C27.6891 25.1032 27.9023 25.1781 28.0907 25.2975C28.2791 25.4169 28.4378 25.5777 28.5547 25.7677C28.6715 25.9577 28.7435 26.1718 28.7651 26.3938C28.7686 26.4717 28.7921 26.5473 28.8335 26.6133C28.8748 26.6794 28.9325 26.7336 29.0011 26.7707C29.0458 26.7955 29.0938 26.8141 29.1435 26.8261L33.314 27.6051C33.3749 27.6193 33.4387 27.6135 33.4961 27.5886C33.5534 27.5637 33.6012 27.5211 33.6324 27.4669C33.6637 27.4128 33.6767 27.3501 33.6695 27.288C33.6624 27.2259 33.6354 27.1678 33.5927 27.1222L33.5991 27.1538L30.8377 23.9286C30.8025 23.8905 30.7626 23.857 30.719 23.8288C30.6506 23.7928 30.5746 23.7739 30.4973 23.7739C30.42 23.7739 30.344 23.7928 30.2756 23.8288C30.0599 23.93 29.823 23.9778 29.5849 23.9682C29.3468 23.9585 29.1145 23.8917 28.9076 23.7734C28.7284 23.6649 28.5743 23.5193 28.4558 23.3465C28.3373 23.1736 28.2571 22.9775 28.2205 22.7712C28.1203 22.2418 27.9072 21.7402 27.5958 21.3006C27.2843 20.8609 26.8817 20.4936 26.4155 20.2236L25.1773 19.5111L32.201 15.4609L31.3317 13.9488L23.4467 18.4977L22.4936 17.9483V16.8527L30.3865 12.2974L29.5204 10.7885L22.492 14.8482V13.4168C22.497 12.8809 22.386 12.3502 22.1666 11.8613C21.9471 11.3723 21.6244 10.9367 21.2206 10.5843C21.0493 10.4386 20.9139 10.2554 20.8251 10.0488C20.7363 9.84227 20.6963 9.61799 20.7085 9.39347C20.7206 9.16896 20.7844 8.95027 20.8949 8.75447C21.0054 8.55867 21.1597 8.39104 21.3456 8.26467C21.4083 8.21939 21.4593 8.15991 21.4945 8.09111C21.5298 8.0223 21.5482 7.94613 21.5483 7.86883C21.5576 7.81806 21.5576 7.76603 21.5483 7.71525L20.0853 3.71417C20.0667 3.6535 20.0288 3.60057 19.9773 3.56342C19.9259 3.52626 19.8637 3.50692 19.8003 3.50833ZM19.8336 12.2357C20.0797 12.2431 20.3133 12.3461 20.4847 12.5229C20.6562 12.6996 20.752 12.9362 20.7519 13.1825V15.8583L19.8066 16.4078L18.8598 15.8568V13.1825C18.86 13.056 18.8855 12.9308 18.9348 12.8143C18.9842 12.6978 19.0564 12.5924 19.1471 12.5043C19.2379 12.4162 19.3454 12.3472 19.4633 12.3013C19.5812 12.2554 19.7071 12.2321 19.8336 12.2357ZM19.8066 18.2808L20.8944 18.8999V20.1365L19.8066 20.7556L18.7173 20.1381V18.8999L19.8066 18.2808ZM23.4467 20.5023L25.7584 21.8433C25.8666 21.905 25.9617 21.9873 26.038 22.0858C26.1144 22.1842 26.1706 22.2967 26.2034 22.4169C26.2362 22.537 26.2449 22.6625 26.2292 22.786C26.2134 22.9096 26.1734 23.0288 26.1115 23.1369V23.1432C25.9847 23.3608 25.7771 23.5194 25.5338 23.5844C25.2905 23.6493 25.0315 23.6154 24.8131 23.49L22.4936 22.1537V21.0517L23.4467 20.5023ZM16.1697 20.5086L17.1229 21.058V22.1537L14.8033 23.49C14.6956 23.5522 14.5767 23.5925 14.4534 23.6087C14.3301 23.625 14.2048 23.6167 14.0847 23.5845C13.9646 23.5523 13.852 23.4968 13.7533 23.4211C13.6547 23.3454 13.5719 23.251 13.5097 23.1432C13.4475 23.0355 13.4072 22.9166 13.391 22.7934C13.3748 22.6701 13.383 22.5448 13.4152 22.4246C13.4474 22.3045 13.5029 22.1919 13.5786 22.0933C13.6544 21.9946 13.7488 21.9118 13.8565 21.8497L16.1697 20.5086Z" fill="black"/>
</g>
<defs>
<clipPath id="clip0_582_140">
<rect width="38" height="38" fill="white" transform="translate(0.800293 0.5)"/>
</clipPath>
</defs>
</svg>
